<svg xmlns="http://www.w3.org/2000/svg" viewBox="0 0 20.69 20.76"><g id="Layer_2" data-name="Layer 2"><g id="Layer_1-2" data-name="Layer 1"><path d="M5.14,15.62a.28.28,0,0,0-.4,0L.08,20.28a.28.28,0,0,0,.4.4L5.14,16A.28.28,0,0,0,5.14,15.62Z" style="fill:#fff"/><path d="M20.49,15.21,15.65,8.09l4.91-4.92A.27.27,0,0,0,20.64,3V2.65h0V.31a.27.27,0,0,0-.08-.19.27.27,0,0,0-.18-.07H17.7a.24.24,0,0,0-.18.07L12.6,5,5.48.2A1.16,1.16,0,0,0,4.83,0H2.36a.27.27,0,0,0-.19.45L9.73,8,2.39,15.34a.25.25,0,0,1-.18.08H.43a.29.29,0,1,0,0,.57H2.19a.86.86,0,0,0,.61-.25L10.14,8.4a.56.56,0,0,0,0-.79l-7-7H4.93a.24.24,0,0,1,.15,0L12,5.31a1,1,0,0,0,1.26-.12l4.5-4.5a.27.27,0,0,1,.19-.08h2.13V2.75a.26.26,0,0,1-.07.19L15.5,7.43a1,1,0,0,0-.12,1.27l4.7,6.91a.24.24,0,0,1,0,.15V17.6l-7-7a.56.56,0,0,0-.79,0L5,17.89a.86.86,0,0,0-.25.6v1.77a.29.29,0,1,0,.57,0V18.48a.23.23,0,0,1,.07-.18L12.68,11l7.56,7.55a.26.26,0,0,0,.45-.18V15.86A1.14,1.14,0,0,0,20.49,15.21Z" style="fill:#fff"/></g></g></svg>