<svg xmlns="http://www.w3.org/2000/svg" viewBox="0 0 34.04 35.08"><g id="Layer_2" data-name="Layer 2"><g id="Layer_1-2" data-name="Layer 1"><g id="g1491"><path id="path1483" d="M29.86,28.88C15.38,35.77,6.39,30,.64,26.5c-.35-.22-1,.05-.43.66,1.91,2.32,8.19,7.92,16.39,7.92s13.08-4.48,13.69-5.26.18-1.2-.43-.94Zm4.07-2.25c-.39-.5-2.37-.6-3.61-.45s-3.12.91-2.95,1.37c.08.17.25.1,1.11,0s3.26-.39,3.76.26-.77,3.8-1,4.31.08.64.5.3A6.58,6.58,0,0,0,33.42,30c.5-1.24.8-3,.51-3.36Z" style="fill:#dbdbdb"/><path id="path1485" d="M20.12,14.82c0,1.81.05,3.31-.86,4.92A3.79,3.79,0,0,1,16,21.85c-1.78,0-2.82-1.36-2.82-3.36,0-4,3.55-4.68,6.9-4.68ZM24.8,26.13a1,1,0,0,1-1.09.11A11.51,11.51,0,0,1,21,23.15c-2.54,2.59-4.34,3.37-7.65,3.37-3.9,0-6.94-2.41-6.94-7.23a7.89,7.89,0,0,1,5-7.59c2.52-1.11,6-1.3,8.72-1.61v-.6a5.93,5.93,0,0,0-.56-3.36A3.09,3.09,0,0,0,17,4.92a3.55,3.55,0,0,0-3.74,2.79,1,1,0,0,1-.8.85l-4.5-.49a.81.81,0,0,1-.69-1c1-5.45,6-7.1,10.37-7.1,2.26,0,5.21.6,7,2.31,2.26,2.11,2.05,4.92,2.05,8v7.24c0,2.17.9,3.12,1.75,4.3a.87.87,0,0,1,0,1.23c-.94.79-2.63,2.26-3.55,3.08h0" style="fill:#dbdbdb;fill-rule:evenodd"/><path id="path1487" d="M29.86,28.88C15.38,35.77,6.39,30,.64,26.5c-.35-.22-1,.05-.43.66,1.91,2.32,8.19,7.92,16.39,7.92s13.08-4.48,13.69-5.26.18-1.2-.43-.94Zm4.07-2.25c-.39-.5-2.37-.6-3.61-.45s-3.12.91-2.95,1.37c.08.17.25.1,1.11,0s3.26-.39,3.76.26-.77,3.8-1,4.31.08.64.5.3A6.58,6.58,0,0,0,33.42,30c.5-1.24.8-3,.51-3.36Z" style="fill:#dbdbdb"/><path id="path1489" d="M20.12,14.82c0,1.81.05,3.31-.86,4.92A3.79,3.79,0,0,1,16,21.85c-1.78,0-2.82-1.36-2.82-3.36,0-4,3.55-4.68,6.9-4.68ZM24.8,26.13a1,1,0,0,1-1.09.11A11.51,11.51,0,0,1,21,23.15c-2.54,2.59-4.34,3.37-7.65,3.37-3.9,0-6.94-2.41-6.94-7.23a7.89,7.89,0,0,1,5-7.59c2.52-1.11,6-1.3,8.72-1.61v-.6a5.93,5.93,0,0,0-.56-3.36A3.09,3.09,0,0,0,17,4.92a3.55,3.55,0,0,0-3.74,2.79,1,1,0,0,1-.8.85l-4.5-.49a.81.81,0,0,1-.69-1c1-5.45,6-7.1,10.37-7.1,2.26,0,5.21.6,7,2.31,2.26,2.11,2.05,4.92,2.05,8v7.24c0,2.17.9,3.12,1.75,4.3a.87.87,0,0,1,0,1.23c-.94.79-2.63,2.26-3.55,3.08h0" style="fill:#dbdbdb;fill-rule:evenodd"/></g></g></g></svg>