<svg xmlns="http://www.w3.org/2000/svg" viewBox="0 0 41.79 41.79"><defs><style>.cls-1{fill:#eae8e8;}.cls-2{fill:#030f21;}</style></defs><g id="Layer_2" data-name="Layer 2"><g id="Layer_1-2" data-name="Layer 1"><rect class="cls-1" width="41.79" height="41.79" rx="5.82"/><path id="path1504" class="cls-2" d="M32,16.25a6.62,6.62,0,0,0-3.16,5.57,6.45,6.45,0,0,0,3.92,5.91,15.68,15.68,0,0,1-2,4.15c-1.25,1.8-2.56,3.6-4.55,3.6s-2.5-1.16-4.79-1.16-3,1.2-4.85,1.2-3.09-1.67-4.55-3.72A17.91,17.91,0,0,1,9,22.12c0-5.68,3.7-8.7,7.34-8.7,1.93,0,3.54,1.27,4.76,1.27s2.95-1.34,5.15-1.34a6.88,6.88,0,0,1,5.8,2.9ZM25.2,10.94a6.53,6.53,0,0,0,1.55-4.07,2.68,2.68,0,0,0-.06-.59,6.5,6.5,0,0,0-4.3,2.21,6.4,6.4,0,0,0-1.61,4,2.48,2.48,0,0,0,.06.53,3.46,3.46,0,0,0,.39,0A5.67,5.67,0,0,0,25.2,10.94Z"/></g></g></svg>