<svg xmlns="http://www.w3.org/2000/svg" viewBox="0 0 28.56 35.08"><g id="Layer_2" data-name="Layer 2"><g id="Layer_1-2" data-name="Layer 1"><path id="path1504" d="M27.65,12a8,8,0,0,0-3.8,6.68,7.76,7.76,0,0,0,4.71,7.1,18.24,18.24,0,0,1-2.41,5C24.65,32.88,23.08,35,20.7,35s-3-1.39-5.76-1.39-3.64,1.43-5.82,1.43-3.7-2-5.45-4.45A21.51,21.51,0,0,1,0,19C0,12.19,4.43,8.57,8.8,8.57c2.32,0,4.25,1.52,5.71,1.52s3.54-1.61,6.18-1.61a8.27,8.27,0,0,1,7,3.48ZM19.44,5.59A7.82,7.82,0,0,0,21.3.71,3.84,3.84,0,0,0,21.24,0a7.83,7.83,0,0,0-5.16,2.66,7.63,7.63,0,0,0-1.94,4.75,3.26,3.26,0,0,0,.07.64,2.87,2.87,0,0,0,.48,0A6.78,6.78,0,0,0,19.44,5.59Z" style="fill:#dbdbdb"/></g></g></svg>