<svg xmlns="http://www.w3.org/2000/svg" viewBox="0 0 136.91 120.29"><g id="Layer_2" data-name="Layer 2"><g id="Layer_1-2" data-name="Layer 1"><g style="opacity:0.1"><polygon points="19.81 119.5 26.43 119.5 29.3 101.24 16.93 101.24 19.81 119.5" style="fill:none;stroke:#030f21;stroke-miterlimit:10;stroke-width:1.5630383065666px"/><polygon points="107.66 119.5 114.28 119.5 117.15 101.24 104.79 101.24 107.66 119.5" style="fill:none;stroke:#030f21;stroke-miterlimit:10;stroke-width:1.5630383065666px"/><rect x="0.78" y="90.66" width="135.34" height="10.67" style="fill:none;stroke:#030f21;stroke-miterlimit:10;stroke-width:1.5630383065666px"/><rect x="89.34" y="5.47" width="15.24" height="85.19" style="fill:none;stroke:#030f21;stroke-miterlimit:10;stroke-width:1.5630383065666px"/><rect x="89.32" y="14.69" width="15.28" height="66.74" style="fill:none;stroke:#030f21;stroke-miterlimit:10;stroke-width:1.5630383065666px"/><rect x="33.31" y="9.12" width="15.86" height="81.54" style="fill:none;stroke:#030f21;stroke-miterlimit:10;stroke-width:1.5630383065666px"/><rect x="38.25" y="22.88" width="5.99" height="54.02" style="fill:none;stroke:#030f21;stroke-miterlimit:10;stroke-width:1.5630383065666px"/><rect x="104.6" y="0.78" width="19.87" height="89.88" style="fill:none;stroke:#030f21;stroke-miterlimit:10;stroke-width:1.5630383065666px"/><rect x="110.78" y="15.95" width="7.51" height="59.54" style="fill:none;stroke:#030f21;stroke-miterlimit:10;stroke-width:1.5630383065666px"/><rect x="34.89" y="42.84" width="76.68" height="17.22" transform="translate(11.04 115.81) rotate(-81.07)" style="fill:none;stroke:#030f21;stroke-miterlimit:10;stroke-width:1.5630383065666px"/><rect x="47.83" y="48.2" width="50.79" height="6.51" transform="translate(11.04 115.81) rotate(-81.07)" style="fill:none;stroke:#030f21;stroke-miterlimit:10;stroke-width:1.5630383065666px"/></g></g></g></svg>