<svg xmlns="http://www.w3.org/2000/svg" viewBox="0 0 17.03 16.67"><g id="Layer_2" data-name="Layer 2"><g id="Layer_1-2" data-name="Layer 1"><path d="M.23,10.39H16.79a.23.23,0,0,0,.23-.24V.23A.23.23,0,0,0,16.79,0H.23A.23.23,0,0,0,0,.23v9.92A.23.23,0,0,0,.23,10.39ZM.46.46h16.1V9.92H.46Zm16.34,11H9.61a.24.24,0,0,0-.23.23v4.7a.23.23,0,0,0,.23.23H16.8a.23.23,0,0,0,.23-.23v-4.7A.24.24,0,0,0,16.8,11.51Zm-.24,4.7H9.85V12h6.71Zm-9.15-4.7H.23a.23.23,0,0,0-.23.23v4.7a.23.23,0,0,0,.23.23H7.41a.23.23,0,0,0,.23-.23v-4.7A.23.23,0,0,0,7.41,11.51Zm-.23,4.7H.46V12H7.18Z"/></g></g></svg>