<svg xmlns="http://www.w3.org/2000/svg" viewBox="0 0 117.91 126.72"><g id="Layer_2" data-name="Layer 2"><g id="Layer_1-2" data-name="Layer 1"><g style="opacity:0.1"><path d="M113,102.69l-78.1,23.73a6.87,6.87,0,0,1-8.56-4.57L8,61.32,99.23,33.61l18.38,60.52A6.87,6.87,0,0,1,113,102.69ZM10.35,62.58,28.19,121.3a5,5,0,0,0,6.2,3.31l78.1-23.73a5,5,0,0,0,3.31-6.2L98,36Z" style="fill:#030f21"/></g><g style="opacity:0.1"><path d="M99.78,35.42,8.54,63.13.3,36a6.87,6.87,0,0,1,4.57-8.56L83,3.7a6.87,6.87,0,0,1,8.56,4.57ZM9.8,60.77,97.41,34.16,89.72,8.82a5,5,0,0,0-6.2-3.31L5.42,29.24a5,5,0,0,0-3.31,6.2Z" style="fill:#030f21"/></g><g style="opacity:0.1"><rect x="52.01" y="53.4" width="9.46" height="9.46" rx="0.97" transform="translate(-14.45 19) rotate(-16.9)" style="fill:#030f21"/><rect x="66.69" y="48.94" width="9.46" height="9.46" rx="0.97" transform="translate(-12.52 23.08) rotate(-16.9)" style="fill:#030f21"/><rect x="81.38" y="44.48" width="9.46" height="9.46" rx="0.97" transform="translate(-10.59 27.15) rotate(-16.9)" style="fill:#030f21"/><rect x="26.97" y="76.55" width="9.46" height="9.46" rx="0.97" transform="matrix(0.96, -0.29, 0.29, 0.96, -22.26, 12.72)" style="fill:#030f21"/><rect x="41.65" y="72.09" width="9.46" height="9.46" rx="0.97" transform="translate(-20.33 16.8) rotate(-16.9)" style="fill:#030f21"/><rect x="56.43" y="67.6" width="9.46" height="9.46" rx="0.97" transform="translate(-18.38 20.9) rotate(-16.9)" style="fill:#030f21"/><rect x="71.02" y="63.17" width="9.46" height="9.46" rx="0.97" transform="translate(-16.47 24.95) rotate(-16.9)" style="fill:#030f21"/><rect x="85.7" y="58.71" width="9.46" height="9.46" rx="0.97" transform="translate(-14.53 29.02) rotate(-16.9)" style="fill:#030f21"/><rect x="31.3" y="90.78" width="9.46" height="9.46" rx="0.97" transform="translate(-26.21 14.6) rotate(-16.9)" style="fill:#030f21"/><rect x="45.98" y="86.32" width="9.46" height="9.46" rx="0.97" transform="translate(-24.28 18.67) rotate(-16.9)" style="fill:#030f21"/><rect x="60.66" y="81.86" width="9.46" height="9.46" rx="0.97" transform="translate(-22.35 22.75) rotate(-16.9)" style="fill:#030f21"/><rect x="75.34" y="77.4" width="9.46" height="9.46" rx="0.97" transform="translate(-20.41 26.82) rotate(-16.9)" style="fill:#030f21"/><rect x="90.02" y="72.94" width="9.46" height="9.46" rx="0.97" transform="translate(-18.48 30.9) rotate(-16.9)" style="fill:#030f21"/><rect x="35.62" y="105.01" width="9.46" height="9.46" rx="0.97" transform="translate(-30.16 16.47) rotate(-16.9)" style="fill:#030f21"/><rect x="50.3" y="100.55" width="9.46" height="9.46" rx="0.97" transform="translate(-28.23 20.54) rotate(-16.9)" style="fill:#030f21"/><rect x="64.98" y="96.09" width="9.46" height="9.46" rx="0.97" transform="translate(-26.29 24.62) rotate(-16.9)" style="fill:#030f21"/><rect x="79.66" y="91.63" width="9.46" height="9.46" rx="0.97" transform="translate(-24.36 28.69) rotate(-16.9)" style="fill:#030f21"/></g><g style="opacity:0.1"><path d="M12.35,32.1a3,3,0,0,1-3.7-2L6.7,23.68A3,3,0,1,1,12.37,22l2,6.44A3,3,0,0,1,12.35,32.1ZM9.22,21.79a1.09,1.09,0,0,0-.71,1.34l2,6.44a1.07,1.07,0,1,0,2-.62l-2-6.44A1.07,1.07,0,0,0,9.22,21.79Z" style="fill:#030f21"/><path d="M28.69,27.13a3,3,0,0,1-3.7-2L23,18.72A3,3,0,0,1,28.71,17l2,6.45A3,3,0,0,1,28.69,27.13Zm-3.13-10.3a1.08,1.08,0,0,0-.71,1.34l1.95,6.44A1.08,1.08,0,0,0,28.86,24l-2-6.44A1.07,1.07,0,0,0,25.56,16.83Z" style="fill:#030f21"/><path d="M45,22.17a3,3,0,0,1-3.7-2l-1.95-6.44A3,3,0,0,1,45.05,12l2,6.44A3,3,0,0,1,45,22.17ZM41.9,11.87a1.07,1.07,0,0,0-.71,1.34l2,6.44A1.08,1.08,0,0,0,45.2,19l-2-6.44A1.07,1.07,0,0,0,41.9,11.87Z" style="fill:#030f21"/><path d="M61.37,17.21a3,3,0,0,1-3.7-2l-2-6.44a3,3,0,0,1,5.68-1.72l2,6.44A3,3,0,0,1,61.37,17.21ZM58.24,6.9a1.07,1.07,0,0,0-.71,1.34l1.95,6.44a1.08,1.08,0,0,0,2.06-.62l-2-6.44A1.07,1.07,0,0,0,58.24,6.9Z" style="fill:#030f21"/><path d="M77.71,12.24a3,3,0,0,1-3.7-2l-2-6.44A3,3,0,0,1,77.73,2.1l2,6.44A3,3,0,0,1,77.71,12.24ZM74.58,1.94a1.07,1.07,0,0,0-.72,1.34l2,6.44a1.08,1.08,0,0,0,1.34.71,1.06,1.06,0,0,0,.71-1.34l-2-6.44A1.08,1.08,0,0,0,74.58,1.94Z" style="fill:#030f21"/></g></g></g></svg>