<svg xmlns="http://www.w3.org/2000/svg" viewBox="0 0 23.02 16.37"><g id="Layer_2" data-name="Layer 2"><g id="Layer_1-2" data-name="Layer 1"><path d="M17.11,3a6.08,6.08,0,0,0-1.19.12A5.93,5.93,0,0,0,10.74,0a6,6,0,0,0-5.8,4.67l-.42,0A4.58,4.58,0,0,0,0,9.28a7.33,7.33,0,0,0,1.29,4.19.33.33,0,0,0,.23.1H12.79a.32.32,0,0,0,.32-.32.32.32,0,0,0-.32-.32H1.66a7.14,7.14,0,0,1-1-3.65,3.94,3.94,0,0,1,3.88-4,3.59,3.59,0,0,1,.62.06.32.32,0,0,0,.37-.26A5.36,5.36,0,0,1,10.74.64a5.29,5.29,0,0,1,4.72,3,.32.32,0,0,0,.37.16,5.16,5.16,0,0,1,1.28-.16A5.35,5.35,0,0,1,22.38,9a9.58,9.58,0,0,1-.85,3.9h-.65a.32.32,0,0,0-.32.32.33.33,0,0,0,.32.32h.83a.32.32,0,0,0,.27-.14A9.85,9.85,0,0,0,23,9,6,6,0,0,0,17.11,3Z" style="fill:#fff"/><path d="M19.15,10.27a.32.32,0,0,0-.43.14L16,15.53l-1.22-1.12a.32.32,0,0,0-.44.47l1.53,1.4a.31.31,0,0,0,.22.09h.05a.31.31,0,0,0,.23-.17l2.89-5.49A.32.32,0,0,0,19.15,10.27Z" style="fill:#fff"/></g></g></svg>