<svg xmlns="http://www.w3.org/2000/svg" viewBox="0 0 13.9 8.96"><defs><style>.cls-1{fill:#030f21;}</style></defs><g id="Layer_2" data-name="Layer 2"><g id="Layer_1-2" data-name="Layer 1"><path class="cls-1" d="M0,6.54c0-.27.06-.53.11-.79a6.83,6.83,0,0,1,3-4.59A6.49,6.49,0,0,1,6.25,0,6.81,6.81,0,0,1,11.9,2.08a6.77,6.77,0,0,1,2,4.16l0,.3V7.81H11V7.24h2.3A6.35,6.35,0,0,0,11.92,3L10.76,4.14l-.41-.41,1.19-1.2A6.38,6.38,0,0,0,7.24.58V2H6.66V.58A6.42,6.42,0,0,0,2.35,2.53l1.2,1.2-.4.4L2,3A6.34,6.34,0,0,0,.59,7.23h2.3v.58H0Z"/><path class="cls-1" d="M10.27,4.21l-.49,1c-.45.94-.89,1.87-1.34,2.8a1.53,1.53,0,0,1-2.93-.63,1.44,1.44,0,0,1,.86-1.34c1.28-.63,2.56-1.23,3.85-1.85ZM9.05,5.42l-.92.44c-.52.25-1.05.48-1.56.75A1,1,0,1,0,7.9,7.82c.3-.6.59-1.21.88-1.82Z"/></g></g></svg>