<svg xmlns="http://www.w3.org/2000/svg" viewBox="0 0 12.71 12.87"><defs><style>.cls-1{fill:#030f21;}</style></defs><g id="Layer_2" data-name="Layer 2"><g id="Layer_1-2" data-name="Layer 1"><path class="cls-1" d="M3.09,12.87H.18A.18.18,0,0,1,0,12.69V6.25a.18.18,0,0,1,.18-.18H3.09a.18.18,0,0,1,.18.18v6.44A.18.18,0,0,1,3.09,12.87ZM.36,12.51H2.92V6.43H.36Z"/><path class="cls-1" d="M7.87,12.87H5a.18.18,0,0,1-.17-.18V3.22A.18.18,0,0,1,5,3H7.87a.18.18,0,0,1,.18.18v9.47A.18.18,0,0,1,7.87,12.87Zm-2.74-.36H7.69V3.4H5.13Z"/><path class="cls-1" d="M12.53,12.87H9.62a.18.18,0,0,1-.18-.18V.18A.18.18,0,0,1,9.62,0h2.91a.18.18,0,0,1,.18.18V12.69A.18.18,0,0,1,12.53,12.87ZM9.8,12.51h2.56V.36H9.8Z"/></g></g></svg>