<svg xmlns="http://www.w3.org/2000/svg" viewBox="0 0 18.11 9.82"><g id="Layer_2" data-name="Layer 2"><g id="Layer_1-2" data-name="Layer 1"><path d="M9.07,0a9.87,9.87,0,0,1,4.59,1.23A15.88,15.88,0,0,1,17.9,4.5a.51.51,0,0,1,0,.82,15.12,15.12,0,0,1-5.73,3.93,8.84,8.84,0,0,1-6.63-.16A15.28,15.28,0,0,1,.18,5.28a.47.47,0,0,1,0-.74A15.05,15.05,0,0,1,5.9.59,9,9,0,0,1,9.07,0Zm-8,4.87L1.18,5A15,15,0,0,0,5.36,8a8,8,0,0,0,6.89.22,14.69,14.69,0,0,0,4.42-3L17,4.94,17,4.87a14.43,14.43,0,0,0-4.9-3.34,7.84,7.84,0,0,0-5.58-.17A12,12,0,0,0,3,3.28C2.33,3.78,1.71,4.33,1.07,4.87Zm11.21,0A3.22,3.22,0,1,1,9.09,1.69,3.23,3.23,0,0,1,12.28,4.92ZM9.07,2.61a2.3,2.3,0,1,0,2.29,2.32A2.3,2.3,0,0,0,9.07,2.61Z" style="fill:#030F21"/></g></g></svg>