<svg id="Layer_1" data-name="Layer 1" xmlns="http://www.w3.org/2000/svg" viewBox="0 0 22.46 18.53"><path d="M344.45,151.14a8.66,8.66,0,0,1-2.27.65c.36-.06.9-.72,1.12-1a4.47,4.47,0,0,0,.73-1.36s0-.09,0-.11l-.06,0-.06,0a11.44,11.44,0,0,1-2.69,1h-.1a.11.11,0,0,1-.09,0,2.72,2.72,0,0,0-.24-.24,4.94,4.94,0,0,0-1.28-.83,4.44,4.44,0,0,0-2-.33,4.83,4.83,0,0,0-4.32,3.63,5,5,0,0,0-.05,1.93c0,.11,0,.13-.09.11a14.38,14.38,0,0,1-9.28-4.71c-.11-.13-.17-.13-.26,0a4.73,4.73,0,0,0,.8,5.56,6.68,6.68,0,0,0,.57.49,4.69,4.69,0,0,1-1.79-.49c-.1-.07-.16,0-.16.09a2.35,2.35,0,0,0,0,.53,4.76,4.76,0,0,0,2.92,3.78,3.09,3.09,0,0,0,.59.18,5.4,5.4,0,0,1-1.75.06c-.12,0-.17,0-.12.16a4.94,4.94,0,0,0,3.65,3.08c.17,0,.34,0,.53.07l0,0c-.36.66-1.82,1.11-2.49,1.34a9.14,9.14,0,0,1-3.81.49c-.21,0-.26,0-.31,0s0,.08.06.13a7.14,7.14,0,0,0,.79.47,12,12,0,0,0,2.55,1,13.6,13.6,0,0,0,13.19-3.09c2.71-2.69,3.66-6.4,3.66-10.11,0-.14.17-.22.27-.3a8.58,8.58,0,0,0,1.79-1.87.51.51,0,0,0,.13-.37C344.55,151.09,344.55,151.1,344.45,151.14Z" transform="translate(-322.09 -148.92)" style="fill:#fff"/></svg>