<svg id="Layer_1" data-name="Layer 1" xmlns="http://www.w3.org/2000/svg" xmlns:xlink="http://www.w3.org/1999/xlink" viewBox="0 0 185.73 39.66"><defs><clipPath id="clip-path" transform="translate(-141.26 -149.58)"><rect x="141.26" y="149.58" width="186.01" height="40" style="fill:none"/></clipPath></defs><g style="clip-path:url(#clip-path)"><path d="M220,177.11a6.56,6.56,0,0,1-4.86-1.73,6.63,6.63,0,0,1-1.74-4.93v-8.16h3.37v8c0,2.61,1.09,3.91,3.25,3.91a3.06,3.06,0,0,0,2.42-1,4.43,4.43,0,0,0,.83-3v-8h3.33v8.16a6.63,6.63,0,0,1-1.74,4.93,6.56,6.56,0,0,1-4.86,1.73m17.25,0a8.43,8.43,0,0,1-4-1,7.25,7.25,0,0,1-2.83-2.69,7.82,7.82,0,0,1,0-7.76,7.25,7.25,0,0,1,2.83-2.69,9,9,0,0,1,7.48-.3,7,7,0,0,1,2.57,1.91l-2.17,2a4.65,4.65,0,0,0-3.66-1.71,4.85,4.85,0,0,0-2.42.6,4.22,4.22,0,0,0-1.65,1.65,5.25,5.25,0,0,0-.6,2.42,5.18,5.18,0,0,0,.6,2.41,4.25,4.25,0,0,0,1.65,1.66,5,5,0,0,0,2.42.59,4.64,4.64,0,0,0,3.66-1.73l2.17,2a6.93,6.93,0,0,1-2.58,1.94,8.64,8.64,0,0,1-3.44.66Zm17.85-9.53a2.28,2.28,0,0,0-.79-1.88A3.53,3.53,0,0,0,252,165h-2.75v5.08H252a3.44,3.44,0,0,0,2.31-.67,2.3,2.3,0,0,0,.79-1.87Zm.07,9.28-2.81-4.06h-3.11v4.06h-3.37V162.29h6.31a8.09,8.09,0,0,1,3.36.65,5,5,0,0,1,2.2,1.83,5.15,5.15,0,0,1,.77,2.81,4.75,4.75,0,0,1-3,4.6l3.27,4.68ZM270,171.18l-2.31-5.58-2.31,5.58Zm1.06,2.56h-6.76L263,176.86h-3.46l6.5-14.57h3.33l6.52,14.57h-3.54Zm9-8.7h-4.66v-2.75h12.7V165h-4.67v11.82h-3.37Zm17,9.2a4.62,4.62,0,0,0,2.33-.59,4.22,4.22,0,0,0,1.64-1.66,5.17,5.17,0,0,0,.59-2.41,5.24,5.24,0,0,0-.59-2.42,4.26,4.26,0,0,0-1.64-1.65,4.83,4.83,0,0,0-2.33-.59,4.89,4.89,0,0,0-2.33.59,4.24,4.24,0,0,0-1.63,1.65,5.25,5.25,0,0,0-.6,2.42,5.18,5.18,0,0,0,.6,2.41,4.2,4.2,0,0,0,1.63,1.66,4.64,4.64,0,0,0,2.33.59Zm0,2.87a8.45,8.45,0,0,1-4.09-1,7.32,7.32,0,0,1-2.85-2.7,7.75,7.75,0,0,1,0-7.72A7.25,7.25,0,0,1,293,163a9,9,0,0,1,8.17,0,7.51,7.51,0,0,1,2.88,2.74,7.41,7.41,0,0,1,0,7.64,7.51,7.51,0,0,1-2.88,2.74,8.5,8.5,0,0,1-4.08,1Zm20.08-9.53a2.28,2.28,0,0,0-.79-1.88,3.5,3.5,0,0,0-2.31-.66h-2.75v5.08h2.75a3.44,3.44,0,0,0,2.31-.67,2.3,2.3,0,0,0,.79-1.87Zm.07,9.28-2.81-4.06h-3.11v4.06H308V162.29h6.31a8.09,8.09,0,0,1,3.36.65,5,5,0,0,1,2.2,1.83,5.07,5.07,0,0,1,.77,2.81,4.75,4.75,0,0,1-3,4.6l3.27,4.68Zm6.36-14.57H327v14.57h-3.37Zm-122.87,0h3.37v11.83h7.31v2.74H200.75Z" transform="translate(-141.26 -149.58)" style="fill:#fff;fill-rule:evenodd"/><path d="M162.71,178.4l-2.52,2.51,8.33,8.33,5.21-5.21-8.33-8.33Z" transform="translate(-141.26 -149.58)" style="fill:#ffcd05;fill-rule:evenodd"/><path d="M152.29,178.4l-2.7-2.7L141.26,184l5.21,5.21,8.33-8.33Z" transform="translate(-141.26 -149.58)" style="fill:#ffcd05;fill-rule:evenodd"/><path d="M157.5,167.79l-11-11L141.26,162l11,11,5.21,5.21,5.21-5.21,18.21-18.21-5.21-5.21Z" transform="translate(-141.26 -149.58)" style="fill:#ed2224;fill-rule:evenodd"/><path d="M157.5,151.73a4.5,4.5,0,0,1,2.47.74,4.44,4.44,0,0,1,.67,6.84,4.36,4.36,0,0,1-2.28,1.22,4.44,4.44,0,0,1-4.56-1.89,4.44,4.44,0,0,1,3.7-6.91Z" transform="translate(-141.26 -149.58)" style="fill:#ffcd05;fill-rule:evenodd"/></g></svg>