<svg xmlns="http://www.w3.org/2000/svg" viewBox="0 0 34.34 35.08"><g id="Layer_2" data-name="Layer 2"><g id="Layer_1-2" data-name="Layer 1"><g id="g1520"><path id="path1512" d="M34.34,17.94a20.84,20.84,0,0,0-.28-3.32H17.54v6.59H27a8.17,8.17,0,0,1-3.51,5.23v4.39h5.64a17.14,17.14,0,0,0,5.21-12.89Z" style="fill:#dbdbdb"/><path id="path1514" d="M17.54,35.08a16.71,16.71,0,0,0,11.59-4.25l-5.64-4.39a10.6,10.6,0,0,1-5.95,1.7A10.49,10.49,0,0,1,7.7,20.89H1.89V25.4a17.52,17.52,0,0,0,15.65,9.68Z" style="fill:#dbdbdb"/><path id="path1516" d="M7.7,20.89a10.32,10.32,0,0,1-.55-3.35,10.64,10.64,0,0,1,.55-3.35V9.68H1.89a17.29,17.29,0,0,0,0,15.72Z" style="fill:#dbdbdb"/><path id="path1518" d="M17.54,6.94a9.49,9.49,0,0,1,6.72,2.63l5-5A16.73,16.73,0,0,0,17.54,0,17.52,17.52,0,0,0,1.89,9.68L7.7,14.19a10.49,10.49,0,0,1,9.84-7.25Z" style="fill:#dbdbdb"/></g></g></g></svg>