<svg xmlns="http://www.w3.org/2000/svg" viewBox="0 0 9.11 10.06"><g id="Layer_2" data-name="Layer 2"><g id="Layer_1-2" data-name="Layer 1"><path d="M2.54.4H1.1C1,.37.93.31.94.2A.18.18,0,0,1,1.1,0H8a.19.19,0,0,1,.17.2A.19.19,0,0,1,8,.4H7.77V2.12a.41.41,0,0,1,0,.11.19.19,0,0,1-.19.18.2.2,0,0,1-.21-.18V.41h-.8V.54c0,1,0,2.05,0,3.07a2.23,2.23,0,0,1-.34,1.2c-.08.14,0,.36,0,.54h0a.5.5,0,0,0,.4.46c.41.12.81.28,1.22.42A1.78,1.78,0,0,1,9.05,7.89c0,.29,0,.58.06.87A.28.28,0,0,1,8.94,9a7.75,7.75,0,0,1-2.08.76,10.15,10.15,0,0,1-5.49-.25C1,9.41.56,9.21.16,9A.25.25,0,0,1,0,8.77,5.27,5.27,0,0,1,.15,7.46a1.52,1.52,0,0,1,.86-1c.44-.19.89-.34,1.34-.5.15,0,.29-.11.44-.15a.14.14,0,0,0,.12-.14c0-.2,0-.4,0-.59a.55.55,0,0,0-.09-.28,1.85,1.85,0,0,1-.3-1l0-3.19ZM4.47,9.66a10.47,10.47,0,0,0,2.08-.21A8.23,8.23,0,0,0,8.6,8.77c.08,0,.11-.08.1-.16,0-.24,0-.48,0-.72a1.36,1.36,0,0,0-.92-1.24l-.94-.34a.16.16,0,0,0-.2.06L4.75,8.47c-.15.17-.25.17-.4,0L4,8.08,2.53,6.38s-.1-.07-.13-.06c-.41.15-.82.28-1.21.45a1.15,1.15,0,0,0-.66.82,7.54,7.54,0,0,0-.12.83c0,.3,0,.3.26.43A9.55,9.55,0,0,0,4.47,9.66ZM3,2.42c0,.45,0,.89,0,1.33a1.4,1.4,0,0,0,.39,1,4.57,4.57,0,0,0,.6.56.91.91,0,0,0,1.19,0,5.21,5.21,0,0,0,.59-.56A1.21,1.21,0,0,0,6.1,4c0-.53,0-1,.05-1.59Zm3.19-2H3V2H6.16ZM2.88,6.18,4.55,8.09,6.26,6.14c-.43-.13-.41-.52-.53-.84a1.64,1.64,0,0,1-1.17.6,1.61,1.61,0,0,1-1.18-.59c0,.1,0,.17,0,.24,0,.27-.09.55-.44.61Z" style="fill:#030F21"/></g></g></svg>