<svg xmlns="http://www.w3.org/2000/svg" viewBox="0 0 21.82 15.38" fill="#7c7c7c"><g id="Layer_2" data-name="Layer 2"><g id="Layer_1-2" data-name="Layer 1"><path d="M4,15.38l-.75-.75L17.86,0l.73.74-2,2,.37.24A20.66,20.66,0,0,1,21.76,7.5a.22.22,0,0,1,0,.32,19.19,19.19,0,0,1-6.55,5.59,9.53,9.53,0,0,1-4.92,1,9.94,9.94,0,0,1-3.9-1.15.29.29,0,0,0-.42.07Zm3-3a8.39,8.39,0,0,0,4.1,1A8.73,8.73,0,0,0,15,12.25,18.32,18.32,0,0,0,20.38,7.8c.11-.14.05-.21,0-.31a19.2,19.2,0,0,0-2.91-2.86c-.5-.4-1-.76-1.53-1.12L13.74,5.68a3.43,3.43,0,0,1-.3,4.28,3.46,3.46,0,0,1-4.52.5Zm5.91-5.86L9.76,9.68a2.27,2.27,0,0,0,2.7-.29A2.31,2.31,0,0,0,12.92,6.51Zm-8.3,4.36A20.51,20.51,0,0,1,1.61,8c-.28-.33-.28-.34,0-.67A17.59,17.59,0,0,1,7.16,2.87,8,8,0,0,1,13,2.25c.26.07.51.15.77.24l.38-1-.1-.05A9.77,9.77,0,0,0,11.52.87a9.2,9.2,0,0,0-4.81,1A18.87,18.87,0,0,0,.08,7.47a.25.25,0,0,0,0,.37A20.68,20.68,0,0,0,3.16,11.1c.33.28.66.54,1,.81L4.83,11ZM7.63,8l.61-.08c.34-.05.34-.05.36-.38A2.31,2.31,0,0,1,10.36,5.4c.24-.06.49-.07.75-.11,0-.17.05-.34.07-.51l.06-.54A3.39,3.39,0,0,0,7.52,8Z" /></g></g></svg>