<svg xmlns="http://www.w3.org/2000/svg" viewBox="0 0 10.99 7.75"><defs><style>.cls-1{fill:#030f21;}</style></defs><g id="Layer_2" data-name="Layer 2"><g id="Layer_1-2" data-name="Layer 1"><path class="cls-1" d="M2,7.75l-.38-.38L9,0l.38.37-1,1,.19.12A10.28,10.28,0,0,1,11,3.78a.1.1,0,0,1,0,.16,9.53,9.53,0,0,1-3.3,2.81,4.72,4.72,0,0,1-2.47.53,5,5,0,0,1-2-.58.15.15,0,0,0-.21,0ZM3.53,6.23a4.28,4.28,0,0,0,2.07.5,4.43,4.43,0,0,0,2-.56,9.16,9.16,0,0,0,2.68-2.24c.06-.07,0-.11,0-.16A9.94,9.94,0,0,0,8.79,2.33C8.53,2.13,8.26,2,8,1.77L6.92,2.86A1.74,1.74,0,0,1,6.77,5a1.65,1.65,0,0,1-.91.52A1.67,1.67,0,0,1,4.5,5.27Zm3-3L4.92,4.88a1.15,1.15,0,0,0,1.36-.15A1.17,1.17,0,0,0,6.51,3.28Z"/><path class="cls-1" d="M2.43,5.56,2.1,6l-.51-.41A10.94,10.94,0,0,1,0,4a.14.14,0,0,1,0-.19A9.67,9.67,0,0,1,3.38.94,4.58,4.58,0,0,1,7.09.72l0,0L7,1.25l-.38-.12a4.05,4.05,0,0,0-3,.32A8.79,8.79,0,0,0,.82,3.69c-.15.16-.15.17,0,.33A10.5,10.5,0,0,0,2.33,5.48Z"/><path class="cls-1" d="M3.79,4A1.69,1.69,0,0,1,5.66,2.14l0,.27,0,.26a2.32,2.32,0,0,0-.38.05,1.17,1.17,0,0,0-.89,1.07c0,.17,0,.17-.18.19L3.84,4Z"/></g></g></svg>