<svg xmlns="http://www.w3.org/2000/svg" viewBox="0 0 16.75 20.44"><g id="Layer_2" data-name="Layer 2"><g id="Layer_1-2" data-name="Layer 1"><path d="M6.32,10a5,5,0,1,1,5-5A5,5,0,0,1,6.32,10Zm0-9.46A4.45,4.45,0,1,0,10.77,5,4.45,4.45,0,0,0,6.32.57Z" style="fill:#fff"/><path d="M12.6,20.44H.28A.28.28,0,0,1,0,20.16V15.91a6.44,6.44,0,0,1,12.88,0v4.25A.28.28,0,0,1,12.6,20.44Zm-12-.56H12.31v-4a5.87,5.87,0,1,0-11.74,0Z" style="fill:#fff"/><path d="M10.84,11.1A4.49,4.49,0,0,1,7.63,9.77a.28.28,0,0,1,.4-.4A4,4,0,1,0,10.84,2.6a3.81,3.81,0,0,0-.59,0,.28.28,0,0,1-.32-.24.29.29,0,0,1,.24-.32A4.91,4.91,0,0,1,10.84,2a4.54,4.54,0,0,1,0,9.07Z" style="fill:#fff"/><path d="M16.47,20.44H12.6a.28.28,0,1,1,0-.56h3.59V16.34A5.2,5.2,0,0,0,11,11.1a4.91,4.91,0,0,0-.86.07.28.28,0,0,1-.33-.23.29.29,0,0,1,.23-.33,6.22,6.22,0,0,1,1-.08,5.77,5.77,0,0,1,5.71,5.81v3.82A.27.27,0,0,1,16.47,20.44Z" style="fill:#fff"/></g></g></svg>