<svg xmlns="http://www.w3.org/2000/svg" viewBox="0 0 18.66 18.66"><g id="Layer_2" data-name="Layer 2"><g id="Layer_1-2" data-name="Layer 1"><path d="M9.33,6.31a1,1,0,1,1,1-1A1,1,0,0,1,9.33,6.31Zm0-1.47a.48.48,0,0,0,0,1,.48.48,0,0,0,0-1Zm.25,8.7V7.76a.26.26,0,0,0-.25-.26H8a.26.26,0,0,0-.26.26A.26.26,0,0,0,8,8H9.08v5.53a.25.25,0,1,0,.5,0Zm1.78,0a.26.26,0,0,0-.26-.25H7.56a.26.26,0,0,0-.26.25.26.26,0,0,0,.26.26H11.1A.26.26,0,0,0,11.36,13.54Zm-2,5.12a9.33,9.33,0,1,1,9.33-9.33A9.34,9.34,0,0,1,9.33,18.66ZM9.33.51a8.83,8.83,0,1,0,8.83,8.82A8.83,8.83,0,0,0,9.33.51Z" style="fill:#0b1422"/></g></g></svg>