<svg xmlns="http://www.w3.org/2000/svg" viewBox="0 0 11.41 12.66"><defs><style>.cls-1{fill:#030f21;}</style></defs><g id="Layer_2" data-name="Layer 2"><g id="Layer_1-2" data-name="Layer 1"><path class="cls-1" d="M.18,12.66A.17.17,0,0,1,0,12.49V.18A.18.18,0,0,1,.18,0,.18.18,0,0,1,.35.18V12.49A.17.17,0,0,1,.18,12.66Z"/><path class="cls-1" d="M4.44,7.44a4.91,4.91,0,0,1-.86-.08L1,6.83a.17.17,0,0,1-.14-.18v-6A.16.16,0,0,1,.94.53a.2.2,0,0,1,.15,0L3.65,1A3.87,3.87,0,0,0,5.24,1L7,.49a4.35,4.35,0,0,1,1.76,0L11.27,1a.18.18,0,0,1,.14.17v6a.17.17,0,0,1-.21.17L8.64,6.82h0a3.92,3.92,0,0,0-1.6,0l-1.71.53A4.56,4.56,0,0,1,4.44,7.44ZM1.23,6.51,3.65,7A3.87,3.87,0,0,0,5.24,7L7,6.48a4.35,4.35,0,0,1,1.76,0L11.06,7V1.33L8.64.83A3.92,3.92,0,0,0,7,.83l-1.71.53a4.48,4.48,0,0,1-1.75,0L1.23.88Z"/></g></g></svg>