<svg xmlns="http://www.w3.org/2000/svg" viewBox="0 0 18.51 18.51"><g id="Layer_2" data-name="Layer 2"><g id="Layer_1-2" data-name="Layer 1"><path d="M9.28,18.51l-.95-2.78H1.85A1.78,1.78,0,0,1,0,13.88v-12A1.78,1.78,0,0,1,1.85,0H7.4l.81,2.76h8.45A1.78,1.78,0,0,1,18.51,4.6V16.66a1.78,1.78,0,0,1-1.85,1.85Zm-4.5-6.85a3.52,3.52,0,0,0,2.62-1,3.66,3.66,0,0,0,1-2.69V7.58a.76.76,0,0,0-.05-.27H4.7V8.72H6.78a1.85,1.85,0,0,1-.71,1,2.09,2.09,0,0,1-1.26.37,2.12,2.12,0,0,1-1.55-.65,2.23,2.23,0,0,1-.65-1.62,2.23,2.23,0,0,1,.65-1.61A2.12,2.12,0,0,1,4.81,5.6a2.08,2.08,0,0,1,.78.15,2,2,0,0,1,.66.45L7.38,5.14a3,3,0,0,0-1.16-.79,3.72,3.72,0,0,0-1.43-.28A3.61,3.61,0,0,0,2.12,5.18,3.65,3.65,0,0,0,1,7.86a3.7,3.7,0,0,0,1.1,2.69A3.62,3.62,0,0,0,4.78,11.66ZM11,12.1l.53-.49q-.33-.39-.6-.75a8.78,8.78,0,0,1-.54-.77Zm1.16-1.18a7.11,7.11,0,0,0,1-1.46,7.11,7.11,0,0,0,.46-1.09H9.9l.26,1h.92c.12.23.27.47.44.74A7.8,7.8,0,0,0,12.13,10.92ZM10.2,17.58h6.46a.92.92,0,0,0,.92-.93V4.6a.91.91,0,0,0-.92-.92H8.51L9.58,7.45H11.4v-1h.95v1h3.4v.92h-1.2a6.74,6.74,0,0,1-.67,1.72,8.9,8.9,0,0,1-1.09,1.56l2.52,2.48-.67.67-2.52-2.49-.83.83.76,2.59Z"/></g></g></svg>