<svg xmlns="http://www.w3.org/2000/svg" viewBox="0 0 20.8 20.44"><g id="Layer_2" data-name="Layer 2"><g id="Layer_1-2" data-name="Layer 1"><path d="M10.4,10.4a.31.31,0,0,1-.13,0L.16,5.28A.29.29,0,0,1,0,5a.26.26,0,0,1,.16-.25L10.28,0a.25.25,0,0,1,.24,0L20.63,4.77A.27.27,0,0,1,20.8,5a.29.29,0,0,1-.16.26L10.53,10.37A.31.31,0,0,1,10.4,10.4ZM.93,5,10.4,9.8,19.87,5,10.4.6Z" style="fill:#fff"/><path d="M10.4,13.65a.31.31,0,0,1-.13,0L.16,8.53A.29.29,0,0,1,0,8.27.26.26,0,0,1,.16,8L2.33,7a.29.29,0,0,1,.38.14.28.28,0,0,1-.14.37L.93,8.28l9.47,4.77,9.47-4.77L18.19,7.5a.28.28,0,0,1-.13-.38A.27.27,0,0,1,18.43,7l2.2,1a.27.27,0,0,1,.17.25.29.29,0,0,1-.16.26L10.53,13.62A.31.31,0,0,1,10.4,13.65Z" style="fill:#fff"/><path d="M10.4,16.87a.31.31,0,0,1-.13,0L.16,11.75A.29.29,0,0,1,0,11.49a.28.28,0,0,1,.16-.25l2.17-1a.29.29,0,0,1,.38.14.28.28,0,0,1-.14.37L.93,11.5l9.47,4.77,9.47-4.77-1.68-.78a.28.28,0,0,1-.13-.38.27.27,0,0,1,.37-.13l2.2,1a.27.27,0,0,1,.17.25.29.29,0,0,1-.16.26L10.53,16.84A.31.31,0,0,1,10.4,16.87Z" style="fill:#fff"/><path d="M10.4,20.44a.31.31,0,0,1-.13,0L.16,15.32A.28.28,0,0,1,0,15.07a.29.29,0,0,1,.16-.26l2.17-1a.28.28,0,0,1,.38.13.3.3,0,0,1-.14.38l-1.64.77,9.47,4.76,9.47-4.76-1.68-.78a.29.29,0,0,1,.24-.52l2.2,1a.3.3,0,0,1,.17.26.28.28,0,0,1-.16.25L10.53,20.41A.31.31,0,0,1,10.4,20.44Z" style="fill:#fff"/></g></g></svg>