<svg xmlns="http://www.w3.org/2000/svg" viewBox="0 0 6.87 11.4"><g id="Layer_2" data-name="Layer 2"><g id="Layer_1-2" data-name="Layer 1"><path d="M3.44,11.4a.16.16,0,0,1-.15-.09L.32,5a3.53,3.53,0,0,1,.2-3.31A3.36,3.36,0,0,1,3.25,0h.38A3.34,3.34,0,0,1,6.35,1.65,3.5,3.5,0,0,1,6.55,5l-3,6.35A.15.15,0,0,1,3.44,11.4ZM3.44.32H3.26A3,3,0,0,0,.79,1.81a3.21,3.21,0,0,0-.18,3l2.83,6,2.83-6a3.22,3.22,0,0,0-.19-3A3,3,0,0,0,3.61.32Zm0,5A1.89,1.89,0,1,1,5.32,3.45,1.89,1.89,0,0,1,3.44,5.34Zm0-3.46A1.57,1.57,0,1,0,5,3.45,1.57,1.57,0,0,0,3.44,1.88Z" style="fill:#7c7c7c"/></g></g></svg>