<svg xmlns="http://www.w3.org/2000/svg" viewBox="0 0 12.59 12.59"><g id="Layer_2" data-name="Layer 2"><g id="Layer_1-2" data-name="Layer 1"><path d="M6.3,11.43A5.14,5.14,0,1,1,11.43,6.3,5.14,5.14,0,0,1,6.3,11.43Zm0-9.91A4.78,4.78,0,1,0,11.08,6.3,4.78,4.78,0,0,0,6.3,1.52Z" style="fill:#7c7c7c"/><path d="M6.3,9.82A3.53,3.53,0,1,1,9.82,6.3,3.53,3.53,0,0,1,6.3,9.82Zm0-6.69A3.17,3.17,0,1,0,9.47,6.3,3.17,3.17,0,0,0,6.3,3.13Z" style="fill:#7c7c7c"/><path d="M6.3,1.52a.18.18,0,0,1-.18-.18V.18a.18.18,0,1,1,.36,0V1.34A.18.18,0,0,1,6.3,1.52Z" style="fill:#7c7c7c"/><path d="M6.3,12.59a.17.17,0,0,1-.18-.17V11.26a.18.18,0,0,1,.36,0v1.16A.17.17,0,0,1,6.3,12.59Z" style="fill:#7c7c7c"/><path d="M12.42,6.48H11.26a.18.18,0,1,1,0-.36h1.16a.18.18,0,0,1,0,.36Z" style="fill:#7c7c7c"/><path d="M1.34,6.48H.18a.18.18,0,0,1,0-.36H1.34a.18.18,0,0,1,0,.36Z" style="fill:#7c7c7c"/></g></g></svg>