<svg xmlns="http://www.w3.org/2000/svg" viewBox="0 0 11.45 19"><g id="Layer_2" data-name="Layer 2"><g id="Layer_1-2" data-name="Layer 1"><path d="M10.59,2.74A5.59,5.59,0,0,0,6,0H5.41A5.59,5.59,0,0,0,.86,2.74,5.91,5.91,0,0,0,.53,8.26l5,10.59a.25.25,0,0,0,.23.15A.26.26,0,0,0,6,18.85l5-10.59A5.93,5.93,0,0,0,10.59,2.74ZM10.44,8,5.72,18.12,1,8a5.35,5.35,0,0,1,.3-5A5.09,5.09,0,0,1,5.43.53H6A5.1,5.1,0,0,1,10.14,3,5.38,5.38,0,0,1,10.44,8ZM5.72,2.61A3.14,3.14,0,1,0,8.86,5.75,3.15,3.15,0,0,0,5.72,2.61Zm0,5.76A2.62,2.62,0,1,1,8.34,5.75,2.62,2.62,0,0,1,5.72,8.37Z"/></g></g></svg>