<svg xmlns="http://www.w3.org/2000/svg" viewBox="0 0 52.82 35.08"><g id="Layer_2" data-name="Layer 2"><g id="Layer_1-2" data-name="Layer 1"><g id="g1536"><path id="Logo0" d="M5.7,23.14a8.8,8.8,0,0,0,1,4.5,3.48,3.48,0,0,0,3,1.74c1.49,0,2.85-.37,5.47-4,2.1-2.91,4.58-7,6.24-9.55l2.83-4.33a41.54,41.54,0,0,1,6.82-8.63A10.38,10.38,0,0,1,37.85,0c3.87,0,7.56,2.24,10.38,6.45a29.48,29.48,0,0,1,4.59,16.39,16.1,16.1,0,0,1-1.9,8.25,7.93,7.93,0,0,1-7.18,4v-5.7c3.24,0,4-3,4-6.38,0-4.85-1.13-10.23-3.62-14.08-1.77-2.73-4.06-4.4-6.58-4.4-2.73,0-4.93,2.06-7.39,5.73-1.31,1.94-2.66,4.32-4.17,7L24.35,20.2c-3.34,5.92-4.18,7.27-5.86,9.5-2.93,3.9-5.43,5.38-8.72,5.38a8.56,8.56,0,0,1-7.91-4.24A15.36,15.36,0,0,1,0,22.93Z" style="fill:#dbdbdb"/><path id="Logo1" d="M4.5,6.85C7.11,2.82,10.89,0,15.22,0a11.54,11.54,0,0,1,7.6,2.87C25.67,5.19,28.7,9,32.49,15.32l1.35,2.26a93.82,93.82,0,0,0,6.24,9.6c1.4,1.7,2.38,2.2,3.66,2.2,3.24,0,4-3,4-6.38l5-.16a16.1,16.1,0,0,1-1.9,8.25,7.93,7.93,0,0,1-7.18,4A9,9,0,0,1,37,32.4a37.24,37.24,0,0,1-5.43-7.3l-4.74-7.91A54.7,54.7,0,0,0,21,8.92c-1.36-1.44-3.1-3.18-5.88-3.18-2.26,0-4.17,1.58-5.77,4Z" style="fill:#dbdbdb"/><path id="Logo2" d="M15.13,5.74c-2.26,0-4.17,1.58-5.77,4A25.37,25.37,0,0,0,5.7,23.14a8.8,8.8,0,0,0,1,4.5l-4.87,3.2A15.36,15.36,0,0,1,0,22.93,30.21,30.21,0,0,1,4.5,6.85C7.11,2.82,10.89,0,15.22,0Z" style="fill:#dbdbdb"/></g></g></g></svg>