<svg xmlns="http://www.w3.org/2000/svg" viewBox="0 0 14.08 17.18"><g id="Layer_2" data-name="Layer 2"><g id="Layer_1-2" data-name="Layer 1"><path d="M5.31,8.43A4.22,4.22,0,1,1,9.53,4.22,4.22,4.22,0,0,1,5.31,8.43Zm0-7.95A3.74,3.74,0,1,0,9.05,4.22,3.74,3.74,0,0,0,5.31.48Zm5.28,16.7H.24A.24.24,0,0,1,0,16.94V13.37a5.42,5.42,0,0,1,10.83,0v3.57A.24.24,0,0,1,10.59,17.18ZM.48,16.71h9.87V13.37a4.94,4.94,0,1,0-9.87,0ZM12.92,5.52A3.82,3.82,0,0,0,9.11,1.71a3.43,3.43,0,0,0-.56,0,.24.24,0,0,0,.07.47,3.89,3.89,0,0,1,.49,0A3.34,3.34,0,1,1,6.75,7.87a.24.24,0,0,0-.34.34,3.81,3.81,0,0,0,6.51-2.69Zm1.16,11.42V13.73a4.84,4.84,0,0,0-4.8-4.88,4.43,4.43,0,0,0-.81.07.23.23,0,0,0-.19.27.24.24,0,0,0,.27.2,4.49,4.49,0,0,1,.73-.06,4.37,4.37,0,0,1,4.33,4.4v3h-3a.24.24,0,1,0,0,.47h3.25A.23.23,0,0,0,14.08,16.94Z" style="fill:#0b1422"/></g></g></svg>