<svg xmlns="http://www.w3.org/2000/svg" viewBox="0 0 172.59 122.85"><g id="Layer_2" data-name="Layer 2"><g id="Layer_1-2" data-name="Layer 1"><path d="M171.65,120.2c0,1.69-32.25,2.65-81.81,2.65S0,122.63,0,120.34c0-2.73,35-2.14,84.55-2.14S171.65,117.47,171.65,120.2Z" style="fill:#766782"/><path d="M93.43,61s5.45-6.22,8.2-9.18a42.64,42.64,0,0,0,5.13-8c6-8.76,11.79-10.07,18.12-8.81s21,10,21,10L133.73,67.72s-24.56,15-25,15S93.43,61,93.43,61Z" style="fill:#b6ad78"/><path d="M103.26,111.11a.63.63,0,0,1-.61-.47L96.52,87.81a.63.63,0,0,1,1.22-.32l6.13,22.83a.62.62,0,0,1-.44.77A.5.5,0,0,1,103.26,111.11Z" style="fill:#da7d5d"/><path d="M52.11,109a.64.64,0,0,1-.55-1l18.2-31.6a.75.75,0,0,1,.95-.24.64.64,0,0,1,.23.87l-18.28,31.6A.63.63,0,0,1,52.11,109Z" style="fill:#da7d5d"/><path d="M50.84,106.46a69.76,69.76,0,0,0,30.75,6.77c17.65-.21,29.56-7.19,31.34-7s5.56,1.9,5,2.75-12.5,8.88-34.52,9.72-40.47-7.82-41.06-9.09S50.24,106,50.84,106.46Z" style="fill:#da7d5d"/><polygon points="145.01 16.31 138.67 18.42 133.81 24.13 135.29 26.88 146.91 24.55 145.01 16.31" style="fill:#e88d74"/><path d="M115.27,8.77l9.24,5.85L126,23.19s-10.31-4-14.11-5S115.27,8.77,115.27,8.77Z" style="fill:#f29e7e"/><path d="M148.87,43a73.32,73.32,0,0,1-6,18.74c-7.4,15.64-23.89,33-43.55,30.86S68.07,73.17,68.07,73.17L94.49,66l19.66-23.25s29.64-11,34.45-11.49c.36,0,.58,0,.64.08C149.71,32,150,36.5,148.87,43Z" style="fill:#ff9c36"/><path d="M148.87,43c-7.87,3.54-12.54,14.45-12.54,14.45l-3.74,2.17c-3.73,2.18-3.26-.77-7.61-3.11L148.6,31.24c.36,0,.58,0,.64.08C149.71,32,150,36.5,148.87,43Z" style="fill:#3a1714"/><path d="M15.12,73.32S30.74,75,31.85,73c.79-1.45.37-5.55.37-5.55L22,64.25Z" style="fill:#ed4450"/><path d="M30.23,69.58a41.22,41.22,0,0,1-6.29,2.93,18.65,18.65,0,0,1-10.2.66c-5.07-.85-6.34-5.28-3.59-8.67,1.49-1.84,6.75-2.55,11.37-2.82,3.86-.22,7.27-.14,7.65-.14a9.35,9.35,0,0,0,2.91-1.35S38.26,65.14,30.23,69.58Z" style="fill:#f29e7e"/><path d="M23.09,72.78c-3.63,1.39-6.12.93-9.35.39-5.07-.85-6.34-5.28-3.59-8.67,1.49-1.84,6.75-2.55,11.37-2.82C23.77,62,25.76,69.49,23.09,72.78Z" style="fill:#ed4450"/><path d="M12.41,118.11a2,2,0,0,0-.42,1c0,.47.48,1.27,8.3,1.69s19.6.21,19.87-1.69c.21-1.48-2.32-1.59-2.32-1.59Z" style="fill:#ed4450"/><path d="M104.75,72s-27.69,2.54-29.6,2.33-11.41.42-11.41.42S46.69,109.91,45.07,113l-.14.25c-.18.3-4.9-.93-8.94-2.76-3.42-1.55-6.52-3.1-6.52-3.1,7.16-12,17.91-38.74,18-38.95-.22.14-14.33,8.78-17.23,8.14-2.55-.57-2.1-7.35-1.54-11.77a7.29,7.29,0,0,1,3.8-5.49c7.7-4.1,26.92-14.13,30.62-14.13,4.65,0,40.9,12.36,40.9,12.36Z" style="fill:#739bc8"/><path d="M48.36,67l-.17,0a.42.42,0,0,1-.21-.56,37.31,37.31,0,0,1,2.19-4.29c1.11-1.66,4-2.45,6.68-1.84a.43.43,0,0,1,.32.51.42.42,0,0,1-.51.31c-2.33-.52-4.88.13-5.79,1.49a37.79,37.79,0,0,0-2.12,4.16A.41.41,0,0,1,48.36,67Z" style="fill:#376b90"/><path d="M86.14,71.8a.35.35,0,0,1-.14,0c-.22-.07-22.33-7.66-33.21-12.27a.42.42,0,0,1-.23-.55.43.43,0,0,1,.56-.23C64,63.32,86.06,70.9,86.28,71a.42.42,0,0,1,.26.54A.42.42,0,0,1,86.14,71.8Z" style="fill:#376b90"/><path d="M45,113.09c0,.06,0,.11-.07.14-.57,1-5.11-.73-9.14-2.55l1.07-2.18S45.17,111.27,45,113.09Z" style="fill:#1a1a1a"/><path d="M38.56,109.11c-.67-.28-1.4-.56-2.19-.85-4.81-1.71-6.44-1.17-6.9-.89a26.88,26.88,0,0,1-1.77,2.8c-5.49,6.24-15.43,6.24-15,8.35s25.79,1.16,26.22-.11-1.06-3.8-1.06-5.92A17,17,0,0,1,38.56,109.11Z" style="fill:#f29e7e"/><path d="M27.7,119.68s-1.9-7.5-3-7.71-12.89,3.41-12.68,7c0,0,1.74.85,8.88.85S27.7,119.68,27.7,119.68Z" style="fill:#ed4450"/><path d="M134.44,28.15s-8.88,10.78-14.58,8.66-.43-8.88-.43-8.88,2-.67,3.82-1.48a8.48,8.48,0,0,0,2.63-1.58A15,15,0,0,1,130,22.81c3-1.23,8.17-3.4,8.29-3.43C138.17,19.47,134.44,24.66,134.44,28.15Z" style="fill:#f29e7e"/><path d="M100.94,56.72a1.37,1.37,0,0,1,.14-1.45c.68-.87,1.74-.38,3.34-3.87,1.31-2.84,7.4-17.76,8-19.24s7.61-4.65,7.61-4.65-1.48,4.65,1.69,5.5c3.57,1,10.86-2.93,10.86-2.93L120.91,63.87l-15.52-.76Z" style="fill:#fff"/><path d="M134,23.28s-4.25,6.09-10.77,3.17a15.35,15.35,0,0,0,3.58-2.85c.41-.49,1.17,0,3.13-.79Z" style="fill:#1a1a1a"/><path d="M129.93,64.68s6.95-13.55,12.65-21.42c7-4.46,29.9-18.2,30-23.17.14-6.58-3.9-9.49-6.86-9.49-2.12,0-16.81,4.12-16.81,4.12a8.34,8.34,0,0,0,.21-1.9c-.31-1-4.44,2.11-4.65,3s-.84,5.5,0,7.82c0,0-6.23,2.64-8.35,2.85,0,0,0-.21-.63-.63a3,3,0,0,0-.64-.31s-6.44,7.6-9,12.25-4.65,13.11-5.28,16.07-4.23,9.51-4.23,9.51S128.87,65.1,129.93,64.68Z" style="fill:#b6ad78"/><path d="M145.75,23.49a.3.3,0,0,1-.28-.17.32.32,0,0,1,.14-.43c.1-.05,10.56-5.3,15.82-8.85a.32.32,0,0,1,.44.08.31.31,0,0,1-.09.44c-5.29,3.58-15.78,8.85-15.89,8.9A.32.32,0,0,1,145.75,23.49Z" style="fill:#9a8e53"/><path d="M155.73,18h0a.21.21,0,0,1-.22-.21,7.43,7.43,0,0,1,1.12-3.46.21.21,0,1,1,.36.22,7,7,0,0,0-1.05,3.24A.21.21,0,0,1,155.73,18Z" style="fill:#9a8e53"/><path d="M149.34,20.64a.2.2,0,0,1-.2-.17,23.52,23.52,0,0,1-.2-5.82.21.21,0,1,1,.42,0,24,24,0,0,0,.19,5.7.21.21,0,0,1-.17.25Z" style="fill:#9a8e53"/><path d="M122.5,49.28a.29.29,0,0,1-.16,0,.32.32,0,0,1-.12-.43c2.74-4.72,7.49-9.59,10-12.21.67-.69,1.3-1.34,1.51-1.6a6.54,6.54,0,0,0-.64-.5c-.63-.45-1.23-.88-1.23-1.39s1.15-.93,3-1.32c.34-.07.75-.16.91-.21a22.92,22.92,0,0,0,.09-4.58.31.31,0,0,1,.3-.33.3.3,0,0,1,.33.3c.23,4.85-.2,5.07-.38,5.16a6.17,6.17,0,0,1-1.12.28,9.08,9.08,0,0,0-2.51.74c.07.2.69.64,1,.84.55.39.94.67.94,1s-.13.38-1.73,2c-2.53,2.6-7.24,7.44-9.94,12.09A.31.31,0,0,1,122.5,49.28Z" style="fill:#9a8e53"/><path d="M142.57,43.48a.21.21,0,0,1-.2-.15c-.27-.91-.57-2.5-1.07-5.13-.33-1.71-.73-3.83-1.26-6.49a.21.21,0,1,1,.41-.09c.53,2.67.94,4.79,1.26,6.5.5,2.62.8,4.2,1.07,5.09a.21.21,0,0,1-.15.26Z" style="fill:#9a8e53"/><path d="M144.43,14.53a.34.34,0,0,0,.2,0,.33.33,0,0,0,.27-.37,3.67,3.67,0,0,0-.52-1.4,2.31,2.31,0,0,0-1.58-1.2,2.43,2.43,0,0,0-1.79.58.32.32,0,1,0,.43.48,1.8,1.8,0,0,1,1.27-.42,1.69,1.69,0,0,1,1.12.9,2.92,2.92,0,0,1,.43,1.16A.31.31,0,0,0,144.43,14.53Z" style="fill:#842a2e"/><path d="M105,49.91a40,40,0,0,1,2.13-3.8c1.41-2.11,3.29-4.51,4.12-6.66,1.48-3.8,7.19-9.51,8.67-10.78a27.73,27.73,0,0,1,3.59-2.25,22.45,22.45,0,0,0,3.7-3.24c.36-.5-5.49,2.85-6.55,2.85l-1.36-1.8a30.6,30.6,0,0,0-2.42-2.41c-.19-.22-.16-.88-.22-1.15s-.78-1.13-1.2-1.94a10.23,10.23,0,0,1-1-5.42c.43-3.38,1.59-4.33,1.38-4.76S113.16,5,112.31,5s-1.58,1.37-1.79,1.8l-5.71-2.12c-2-.74-6.34.64-7.82,4.65s8.6,24.46,9,26.36,1.06,5.07,1.06,5.07A34,34,0,0,1,105,49.91Z" style="fill:#b6ad78"/><path d="M108.93,14.26a.21.21,0,0,1-.21-.19,15.82,15.82,0,0,1,1.35-7.45.21.21,0,0,1,.38.18A15.5,15.5,0,0,0,109.14,14a.21.21,0,0,1-.19.23Z" style="fill:#9a8e53"/><path d="M110.81,18.52a22,22,0,0,1-4.4-.89.32.32,0,0,1,.18-.61,28.3,28.3,0,0,0,3.54.81c-1.5-1.07-4.52-3.28-5.33-4.08a.31.31,0,0,1,0-.45.3.3,0,0,1,.44,0c1,1,6,4.58,6.09,4.61a.31.31,0,0,1-.12.57A1.59,1.59,0,0,1,110.81,18.52Z" style="fill:#9a8e53"/><path d="M107.81,44.48l-.1,0a.31.31,0,0,1-.2-.4c.58-1.79,3.54-10.73,4.23-11.38a18.08,18.08,0,0,1,2.05-1.42,18.92,18.92,0,0,0,2.08-1.46,3.21,3.21,0,0,0-.23-.92,2.16,2.16,0,0,1-.19-1.41c.19-.37,1.54-.78,4-1.22a.31.31,0,1,1,.11.62,17.12,17.12,0,0,0-3.58.91,3.93,3.93,0,0,0,.24.9,2.13,2.13,0,0,1,.19,1.4,9.07,9.07,0,0,1-2.31,1.71,21.19,21.19,0,0,0-1.95,1.35c-.47.49-2.74,7.08-4.07,11.12A.32.32,0,0,1,107.81,44.48Z" style="fill:#9a8e53"/><path d="M72.82,75.39s7.3-1,15-9.09c6.94-7.22,11.63-9.3,20.51-7.4s20.39,7.31,29.56-3.49l-1,10.26L105.59,88.92Z" style="fill:#ff9c36"/><path d="M123.52,62.05c-4.91,0-10-1.34-15.27-2.84a18.42,18.42,0,0,0-5.84-.62.32.32,0,0,1-.33-.31.31.31,0,0,1,.31-.32,18.57,18.57,0,0,1,6,.64C114.8,60.43,121,62,126.77,61.2c6.45-.91,11.59-4.78,15.75-11.86a.31.31,0,0,1,.54.32c-4.25,7.25-9.55,11.23-16.2,12.17A24.66,24.66,0,0,1,123.52,62.05Z" style="fill:#fff"/><path d="M73.28,75.4H73a.32.32,0,0,1,.07-.63c.06,0,5.3.46,14.54-8.69,5-5,9.09-7.92,14.78-8.11a.32.32,0,0,1,0,.63c-5.48.18-9.42,3-14.36,7.94C79.65,74.84,74.51,75.4,73.28,75.4Z" style="fill:#fff"/><path d="M63.21,77.5a.39.39,0,0,1-.18,0,.42.42,0,0,1-.2-.56l1.91-4a.42.42,0,0,1,.56-.2.43.43,0,0,1,.2.57l-1.9,4A.44.44,0,0,1,63.21,77.5Z" style="fill:#ffedf1"/><path d="M130.21,114.71a.77.77,0,0,1-.65-.44l-12.9-25h0a39.15,39.15,0,0,1-23.17-8A6.61,6.61,0,0,0,89.64,80c-12.65-.19-17.81-1.8-19.51-2.55a.75.75,0,0,1-.42-1,.73.73,0,0,1,1-.4c1.32.58,5.76,2.47,20.47,2.47a4.08,4.08,0,0,1,2.32.9,36.3,36.3,0,0,0,23.15,8.41h.47a.75.75,0,0,1,.67.4l13.1,25.37a.72.72,0,0,1-.32,1A.69.69,0,0,1,130.21,114.71Z" style="fill:#da7d5d"/><path d="M82.34,115.45a.64.64,0,0,1-.2,0,.74.74,0,0,1-.52-.91l9.73-35.09a.74.74,0,1,1,1.42.4l-9.72,35.09A.75.75,0,0,1,82.34,115.45Z" style="fill:#da7d5d"/><path d="M75.15,109.63a78.24,78.24,0,0,0,32.76,6.77c18.82-.21,31.5-7.19,33.4-7s5.92,1.91,5.29,2.75-13.32,8.88-36.79,9.72-43.12-7.82-43.75-9.08S74.51,109.21,75.15,109.63Z" style="fill:#e9946b"/><path d="M105,116.32A78.7,78.7,0,0,1,84.15,113a.32.32,0,1,1,.17-.61c13.11,3.74,21.69,3.27,21.78,3.26a.32.32,0,0,1,0,.64S105.73,116.32,105,116.32Z" style="fill:#a9644c"/><path d="M127.49,8.38S125.85,3.54,130,.77c4.44-3,7.53,3.52,7.53,3.52-.26-.87.53-3.67,2.48-2.32s1.83,8.32,1.83,8.32a2,2,0,0,1,1.48-.64c1.27.21-.87,2.63-.87,2.63s2.19,2,1.42,3.76-5.84,5.87-7.74,6.08c-2.57.29-7.61-6.65-7.61-6.65Z" style="fill:#842a2e"/><path d="M128,7.44s-6.39,9-5.91,12.1c.25,1.63,2.67,3.34,4,3.95,3.93,1.89,7.53,1.16,10.09-2.63,0,0,4.22,1.68,4.41-3.37.1-2.76-3.65-.48-3.65-.48s-.72-.7.3-3.55c-2.11-.21-6.5-4.49-6.65-7.09A4.61,4.61,0,0,1,128,7.44Z" style="fill:#f29e7e"/><path d="M125.89,15.13a.34.34,0,0,1,.45-.14l.47.26a.33.33,0,1,1-.31.59l-.47-.25A.35.35,0,0,1,125.89,15.13Z" style="fill:#e5816a"/><path d="M132.17,10.19c.3.35.65.65.93,1s.51.79.78,1.18-.29.75-.53.4-.5-.8-.79-1.18-.63-.67-.93-1S131.9,9.86,132.17,10.19Z" style="fill:#842a2e"/><path d="M128.26,9.53a.36.36,0,0,0,.21-.24.33.33,0,0,0-.26-.38,4.67,4.67,0,0,0-2,.11.32.32,0,1,0,.19.62,4.25,4.25,0,0,1,1.71-.1A.32.32,0,0,0,128.26,9.53Z" style="fill:#842a2e"/><path d="M136.13,12.82a2.85,2.85,0,0,0,.38,2.76s-3.13,3.8-6.3,3.37c-1.67-.22-2.15-1.59-3.59-2.53s-3.48-.65-4.23.63c-1,1.76-3,6.06,1.42,7.43,4.13,1.28,8.76.83,11.34-1.89.44-.47,1.23-1.23,1.09-1.86a5.22,5.22,0,0,1,0-2,3.72,3.72,0,0,1,1.85-2.55c1.53-1-.12-3.36-.12-3.36Z" style="fill:#842a2e"/><path d="M125,18.75a1,1,0,0,1,.36-.65.71.71,0,0,1,.38-.09,2.75,2.75,0,0,1,1.51.62l.13.1a.39.39,0,0,1,0,.45,1.21,1.21,0,0,1-.36.31l-1.32.87c-.29.19-.85.4-.94-.11A4.58,4.58,0,0,1,125,18.75Z" style="fill:#1a1a1a"/><path d="M132.51,13.75a1,1,0,0,0-.45-.62,1.78,1.78,0,0,0-.76-.33,1.21,1.21,0,0,0-.82.16.36.36,0,0,0,.08.5.44.44,0,0,0,.3,0,.86.86,0,0,1,.39,0,.74.74,0,0,1,.54.46.39.39,0,0,0,.44.28.37.37,0,0,0,.28-.48S132.53,13.81,132.51,13.75Z" style="fill:#1a1a1a"/><path d="M125,12.31c-.06,0-.07-.09-.08-.15a.72.72,0,0,1,.47-.64,1.33,1.33,0,0,1,1,0,.33.33,0,0,1,.15.16.42.42,0,0,1-.12.44c-.26.25-.49,0-.76-.05a.48.48,0,0,0-.31,0S125,12.31,125,12.31Z" style="fill:#1a1a1a"/></g></g></svg>