<svg xmlns="http://www.w3.org/2000/svg" viewBox="0 0 13.31 7.21"><g id="Layer_2" data-name="Layer 2"><g id="Layer_1-2" data-name="Layer 1"><path d="M6.67,0A7.41,7.41,0,0,1,10,.9a11.6,11.6,0,0,1,3.11,2.41c.21.22.21.37,0,.6A10.93,10.93,0,0,1,8.94,6.79a6.46,6.46,0,0,1-4.87-.11A11.31,11.31,0,0,1,.13,3.88a.34.34,0,0,1,0-.54A11.12,11.12,0,0,1,4.33.43,6.65,6.65,0,0,1,6.67,0ZM.79,3.58l.08.09A11,11,0,0,0,3.94,5.88,5.94,5.94,0,0,0,9,6a10.67,10.67,0,0,0,3.25-2.18l.25-.23s0,0,0,0a10.69,10.69,0,0,0-3.6-2.46A5.79,5.79,0,0,0,4.77,1,8.76,8.76,0,0,0,2.19,2.41C1.71,2.78,1.26,3.18.79,3.58ZM9,3.62A2.37,2.37,0,1,1,6.68,1.24,2.36,2.36,0,0,1,9,3.62ZM6.67,1.92a1.69,1.69,0,1,0,0,3.38,1.71,1.71,0,0,0,1.7-1.68A1.69,1.69,0,0,0,6.67,1.92Z" style="fill:#fff"/></g></g></svg>