<svg xmlns="http://www.w3.org/2000/svg" viewBox="0 0 20.69 18.97"><g id="Layer_2" data-name="Layer 2"><g id="Layer_1-2" data-name="Layer 1"><path d="M20.4,15.47H.28A.29.29,0,0,1,0,15.19V.28A.29.29,0,0,1,.28,0H20.4a.29.29,0,0,1,.29.28V15.19A.29.29,0,0,1,20.4,15.47ZM.57,14.9H20.12V.57H.57Z" style="fill:#fff"/><path d="M7.75,18.71a.29.29,0,0,1-.28-.29V15.19a.29.29,0,1,1,.57,0v3.23A.29.29,0,0,1,7.75,18.71Z" style="fill:#fff"/><path d="M13,18.71a.29.29,0,0,1-.29-.29V15.19a.29.29,0,1,1,.57,0v3.23A.29.29,0,0,1,13,18.71Z" style="fill:#fff"/><path d="M20.1,12.87H.28a.28.28,0,0,1,0-.56H20.1a.28.28,0,1,1,0,.56Z" style="fill:#fff"/><path d="M15.4,19H5.25a.29.29,0,0,1,0-.57H15.4a.29.29,0,1,1,0,.57Z" style="fill:#fff"/></g></g></svg>