<svg xmlns="http://www.w3.org/2000/svg" viewBox="0 0 15.04 18.49"><g id="Layer_2" data-name="Layer 2"><g id="Layer_1-2" data-name="Layer 1"><path d="M1.91,0A1.92,1.92,0,0,0,0,1.91V16.58a1.92,1.92,0,0,0,1.91,1.91H13.12A1.91,1.91,0,0,0,15,16.58V4.52a1.61,1.61,0,0,0-.12-.7,1.92,1.92,0,0,0-.38-.55h0L11.75.54h0a2,2,0,0,0-.59-.38A2.1,2.1,0,0,0,10.31,0H1.91Z" style="fill:#ff2116"/><path d="M1.91.63h8.41a1.73,1.73,0,0,1,.59.11,1.7,1.7,0,0,1,.4.25h0l2.78,2.73a1.39,1.39,0,0,1,.25.35,1.62,1.62,0,0,1,.07.42h0V16.58a1.28,1.28,0,0,1-1.29,1.28H1.91A1.27,1.27,0,0,1,.63,16.58V1.91A1.26,1.26,0,0,1,1.91.63Z" style="fill:#f5f5f5"/><path d="M3.75,11c-.43-.44,0-1,1.31-1.66L5.85,9l.31-.68c.18-.38.43-1,.57-1.36L7,6.24l-.18-.5a3.62,3.62,0,0,1-.16-1.87c.19-.45.8-.4,1,.08a3.06,3.06,0,0,1-.05,1.92l-.18.71.16.27c.09.15.35.51.57.8l.43.53.54-.07c1.69-.22,2.28.16,2.28.7S10.1,9.54,9,8.76a3.77,3.77,0,0,1-.42-.35s-.7.14-1.05.23L6.46,9s-.19.27-.31.46A5,5,0,0,1,4.82,11,.93.93,0,0,1,3.75,11Zm.68-.25A5.15,5.15,0,0,0,5.5,9.49l.14-.21L5,9.59c-1,.49-1.42.95-1.18,1.22s.28.15.59-.05ZM10.72,9a.37.37,0,0,0-.07-.64,1.9,1.9,0,0,0-.92-.12l-1,.11s.3.21.43.28a5,5,0,0,0,.9.38.71.71,0,0,0,.62,0ZM8.19,8a6.35,6.35,0,0,1-.54-.7,3.94,3.94,0,0,1-.31-.45,7.8,7.8,0,0,1-.27.76l-.38.93-.11.22s.59-.19.89-.27,1-.21,1-.21ZM7.38,4.68a1.42,1.42,0,0,0,0-.77c-.28-.3-.61-.05-.55.67a5.18,5.18,0,0,0,.16.9l.14.46.1-.35a8.08,8.08,0,0,0,.2-.91Z" style="fill:#ff2116"/><path d="M4.49,13h.7a2,2,0,0,1,.54.07.64.64,0,0,1,.36.28,1,1,0,0,1,.14.52.9.9,0,0,1-.12.48.67.67,0,0,1-.31.29,1.51,1.51,0,0,1-.6.09H5v1.1H4.49Zm.47.37v1h.23a.6.6,0,0,0,.43-.11.51.51,0,0,0,.12-.38.57.57,0,0,0-.08-.31.26.26,0,0,0-.18-.15,1,1,0,0,0-.29,0ZM6.59,13h.63a1.42,1.42,0,0,1,.74.17,1,1,0,0,1,.42.49,1.64,1.64,0,0,1,.14.71,2.09,2.09,0,0,1-.12.74,1.31,1.31,0,0,1-.39.53,1.26,1.26,0,0,1-.75.19H6.59Zm.47.38v2.08h.19a.64.64,0,0,0,.59-.28A1.32,1.32,0,0,0,8,14.42c0-.69-.26-1-.78-1ZM9,13h1.58v.38H9.44v.85h.89v.37H9.44v1.23H9Z" style="fill:#2c2c2c"/></g></g></svg>