<svg xmlns="http://www.w3.org/2000/svg" viewBox="0 0 8.53 8.53"><g id="Layer_2" data-name="Layer 2"><g id="Layer_1-2" data-name="Layer 1"><path d="M0,5.63V2.9s0,0,0,0a.9.9,0,0,1,.93-.75c.25,0,.5,0,.75,0h.09V.85A.89.89,0,0,1,2.06.24,1,1,0,0,1,2.55,0H6a.88.88,0,0,1,.75,1V2.13h.91a.9.9,0,0,1,.83.62s0,.1,0,.15V5.65a.89.89,0,0,1-.92.75H6.75v.11c0,.39,0,.78,0,1.17a.89.89,0,0,1-.63.82L6,8.53H2.53a.88.88,0,0,1-.75-.92V6.4H.88A.89.89,0,0,1,0,5.78S0,5.68,0,5.63ZM6.75,6h.84a.54.54,0,0,0,.59-.58V3.07a.54.54,0,0,0-.59-.58H.93a.54.54,0,0,0-.58.57V5.47A.54.54,0,0,0,.93,6h.85V4.85c0-.17.06-.23.22-.23H6.53c.16,0,.22.06.22.23V6ZM2.13,5V7.59a.54.54,0,0,0,.59.59h3.1A.54.54,0,0,0,6.4,7.6V5Zm0-2.85H6.4V.84s0,0,0,0A.54.54,0,0,0,5.83.35H2.68a.54.54,0,0,0-.55.56V2.13ZM5,6.75h.13a.18.18,0,0,0,0-.35H3a.18.18,0,0,0-.14.19A.16.16,0,0,0,3,6.75H5Zm-1.28.36H3a.15.15,0,0,0-.16.12.14.14,0,0,0,0,.18.28.28,0,0,0,.16,0H5.19a.17.17,0,0,0,.14-.18.17.17,0,0,0-.16-.17H3.76Zm-.7-1.42h0c-.13,0-.2.07-.2.17A.17.17,0,0,0,3,6h.67a.18.18,0,1,0,0-.35c-.11,0-.21,0-.32,0Z" style="fill:#030F21"/></g></g></svg>