<svg xmlns="http://www.w3.org/2000/svg" viewBox="0 0 15.16 24.7"><g id="Layer_2" data-name="Layer 2"><g id="Layer_1-2" data-name="Layer 1"><path d="M7.58,12.69H.34a.36.36,0,0,1-.3-.17.36.36,0,0,1,0-.35L7.29.17A.33.33,0,0,1,7.67,0a.34.34,0,0,1,.25.33v12A.34.34,0,0,1,7.58,12.69ZM1,12H7.24V1.57Z" style="fill:#fff"/><path d="M7.58,24.7l-.09,0a.33.33,0,0,1-.25-.33v-12A.34.34,0,0,1,7.58,12h7.24a.33.33,0,0,1,.3.17.34.34,0,0,1,0,.35l-7.24,12A.32.32,0,0,1,7.58,24.7Zm.34-12V23.13l6.3-10.44Z" style="fill:#fff"/></g></g></svg>