<svg xmlns="http://www.w3.org/2000/svg" viewBox="0 0 160.07 160.07"><g id="Layer_2" data-name="Layer 2"><g id="Layer_1-2" data-name="Layer 1"><g style="opacity:0.1"><path d="M80,160.07a80,80,0,1,1,80-80A80.12,80.12,0,0,1,80,160.07ZM80,2.63A77.41,77.41,0,1,0,157.44,80,77.49,77.49,0,0,0,80,2.63Z" style="fill:#030f21"/><path d="M80,142.66A62.63,62.63,0,1,1,142.66,80,62.69,62.69,0,0,1,80,142.66ZM80,20a60,60,0,1,0,60,60A60.06,60.06,0,0,0,80,20Z" style="fill:#030f21"/><path d="M83.25,75.91,95,41.2a.53.53,0,0,0-.32-.67.54.54,0,0,0-.68.31l-13.46,34a4.4,4.4,0,0,0-.51,0,5.24,5.24,0,0,0-3.87,8.79L69.36,105.5a1.4,1.4,0,0,0,.85,1.71,1.38,1.38,0,0,0,1.75-.76L81,85.19a5.23,5.23,0,0,0,2.23-9.28Z" style="fill:#030f21"/><circle cx="29.62" cy="80.03" r="3.27" style="fill:#030f21"/><circle cx="130.45" cy="80.03" r="3.27" style="fill:#030f21"/><circle cx="80.04" cy="130.45" r="3.27" style="fill:#030f21"/><path d="M83.31,29.62A3.28,3.28,0,1,1,80,26.35,3.28,3.28,0,0,1,83.31,29.62Z" style="fill:#030f21"/><path d="M52.92,40a2.41,2.41,0,0,1-1.3-4.44,2.46,2.46,0,0,1,1.29-.38,2.39,2.39,0,0,1,2,1.12,2.41,2.41,0,0,1-.73,3.32A2.4,2.4,0,0,1,52.92,40Z" style="fill:#030f21"/><path d="M107.16,124.93a2.41,2.41,0,0,1,0-4.81,2.41,2.41,0,1,1,0,4.81Z" style="fill:#030f21"/><path d="M37.55,109.57a2.41,2.41,0,0,1-1.3-4.44,2.37,2.37,0,0,1,1.29-.38,2.41,2.41,0,0,1,1.3,4.44A2.49,2.49,0,0,1,37.55,109.57Z" style="fill:#030f21"/><path d="M122.53,55.32a2.4,2.4,0,0,1-2.35-2.93,2.43,2.43,0,0,1,1-1.51,2.49,2.49,0,0,1,1.29-.38,2.41,2.41,0,0,1,1.3,4.44A2.37,2.37,0,0,1,122.53,55.32Z" style="fill:#030f21"/><path d="M35.82,58.21a2.45,2.45,0,0,1-1.15-.29,2.41,2.41,0,0,1,1.16-4.52,2.41,2.41,0,1,1,0,4.81Z" style="fill:#030f21"/><path d="M124.24,106.67a2.32,2.32,0,0,1-1.15-.3,2.41,2.41,0,0,1,1.15-4.52,2.47,2.47,0,0,1,1.16.3,2.41,2.41,0,0,1-1.16,4.52Z" style="fill:#030f21"/><path d="M55.8,126.65a2.35,2.35,0,0,1-1.15-.3A2.41,2.41,0,1,1,57,122.13a2.41,2.41,0,0,1,1,3.27A2.41,2.41,0,0,1,55.8,126.65Z" style="fill:#030f21"/><path d="M104.26,38.24a2.43,2.43,0,0,1-1.15-.3,2.41,2.41,0,0,1-1-3.27,2.41,2.41,0,0,1,2.12-1.25,2.32,2.32,0,0,1,1.15.3,2.41,2.41,0,0,1-1.16,4.52Z" style="fill:#030f21"/></g></g></g></svg>