<svg xmlns="http://www.w3.org/2000/svg" viewBox="0 0 14.05 10.46"><defs><style>.cls-1{fill:#030f21;}</style></defs><g id="Layer_2" data-name="Layer 2"><g id="Layer_1-2" data-name="Layer 1"><path class="cls-1" d="M13.86,4.94H12.19V1.75A.2.2,0,0,0,12,1.56H9.6L8.74.09A.23.23,0,0,0,8.62,0a.21.21,0,0,0-.15,0L6.18,1.58l-.09,0H.19A.19.19,0,0,0,0,1.75v8.52a.19.19,0,0,0,.19.19H12a.2.2,0,0,0,.19-.19V7h1.67a.19.19,0,0,0,.19-.18V5.12A.19.19,0,0,0,13.86,4.94Zm-2-3V3.1H10.5L9.82,1.94ZM8.52.46l.79,1.35a.14.14,0,0,0,0,.08l.7,1.21H4.61Zm3.29,9.62H.38V1.94H5.65L3.93,3.1H2.19a.19.19,0,1,0,0,.37h9.62V4.94H7.1a.18.18,0,0,0-.19.18V6.78A.18.18,0,0,0,7.1,7h4.71Zm1.86-3.49H7.28V5.31h6.39Z"/></g></g></svg>