<svg xmlns="http://www.w3.org/2000/svg" viewBox="0 0 11.41 11.41"><defs><style>.cls-1{fill:#030f21;}</style></defs><g id="Layer_2" data-name="Layer 2"><g id="Layer_1-2" data-name="Layer 1"><path class="cls-1" d="M5.71,11.41a5.71,5.71,0,1,1,5.7-5.7A5.71,5.71,0,0,1,5.71,11.41Zm0-11.1a5.4,5.4,0,1,0,5.39,5.4A5.4,5.4,0,0,0,5.71.31Z"/><path class="cls-1" d="M3.92,7.55a.13.13,0,0,1-.11,0,.16.16,0,0,1,0-.22L5.2,6a.16.16,0,0,1,.22,0,.17.17,0,0,1,0,.22L4,7.51A.15.15,0,0,1,3.92,7.55Z"/><path class="cls-1" d="M5.71,5.31a.16.16,0,0,1-.16-.15V1.6a.16.16,0,0,1,.16-.16.16.16,0,0,1,.15.16V5.16A.15.15,0,0,1,5.71,5.31Z"/><path class="cls-1" d="M5.71,6.32a.62.62,0,1,1,.61-.61A.61.61,0,0,1,5.71,6.32Zm0-.92a.31.31,0,1,0,0,.61.31.31,0,0,0,0-.61Z"/></g></g></svg>