<svg xmlns="http://www.w3.org/2000/svg" viewBox="0 0 11.74 11.64"><defs><style>.cls-1{fill:#030f21;}</style></defs><g id="Layer_2" data-name="Layer 2"><g id="Layer_1-2" data-name="Layer 1"><path class="cls-1" d="M1.56,7.43A1.56,1.56,0,1,1,3.12,5.87,1.56,1.56,0,0,1,1.56,7.43Zm0-2.79A1.24,1.24,0,1,0,2.8,5.87,1.24,1.24,0,0,0,1.56,4.64Z"/><path class="cls-1" d="M10.18,3.12a1.56,1.56,0,1,1,1.56-1.56A1.56,1.56,0,0,1,10.18,3.12Zm0-2.8a1.24,1.24,0,1,0,1.24,1.24A1.25,1.25,0,0,0,10.18.32Z"/><path class="cls-1" d="M10.18,11.64a1.56,1.56,0,1,1,1.56-1.56A1.56,1.56,0,0,1,10.18,11.64Zm0-2.8a1.24,1.24,0,1,0,1.24,1.24A1.25,1.25,0,0,0,10.18,8.84Z"/><path class="cls-1" d="M2.81,5.41a.14.14,0,0,1-.14-.09.16.16,0,0,1,.07-.22L8.86,2a.15.15,0,0,1,.21.07A.16.16,0,0,1,9,2.33L2.88,5.39A.1.1,0,0,1,2.81,5.41Z"/><path class="cls-1" d="M8.92,9.63l-.07,0-6-2.95a.17.17,0,0,1-.08-.22.16.16,0,0,1,.22-.07L9,9.32a.17.17,0,0,1,.08.22A.16.16,0,0,1,8.92,9.63Z"/></g></g></svg>