<svg xmlns="http://www.w3.org/2000/svg" viewBox="0 0 16.85 16.85"><g id="Layer_2" data-name="Layer 2"><g id="Layer_1-2" data-name="Layer 1"><path d="M10.6,16.85a1.89,1.89,0,0,1-.82-.39,1.55,1.55,0,0,1-.47-.76L7.54,9.51a.25.25,0,0,0-.21-.21L1.18,7.55A1.55,1.55,0,0,1,0,6.33l0-.08V5.82l0-.05A1.52,1.52,0,0,1,1.17,4.54l1.35-.41L15.12.35,16.22,0h.27a.78.78,0,0,1,.36.36V.63a.59.59,0,0,0-.06.14L13.43,12c-.37,1.25-.75,2.5-1.12,3.75a1.57,1.57,0,0,1-1,1.07l-.28.08Zm4-15.24,0-.06-.17.05L4.67,4.51l-3.22,1a.57.57,0,0,0,0,1.13L7.57,8.35a.28.28,0,0,0,.32-.08c2.18-2.2,4.38-4.39,6.57-6.57A.34.34,0,0,1,14.61,1.61Zm.69.68h0l-.08.08L8.55,9a.22.22,0,0,0-.06.26l1.2,4.17.57,2a.56.56,0,0,0,.76.39.7.7,0,0,0,.37-.48Q13,9.9,14.65,4.44C14.87,3.72,15.09,3,15.3,2.29ZM16.85,0h-.36a.78.78,0,0,1,.36.36Z" style="fill:#7d7d7d"/></g></g></svg>