<svg xmlns="http://www.w3.org/2000/svg" viewBox="0 0 10.29 6.64"><g id="Layer_2" data-name="Layer 2"><g id="Layer_1-2" data-name="Layer 1"><path d="M0,4.84c0-.2,0-.39.08-.59A5.07,5.07,0,0,1,2.3.86,4.87,4.87,0,0,1,4.63,0,5,5,0,0,1,8.81,1.54a5,5,0,0,1,1.45,3.08l0,.22v.94H8.15V5.36H9.86a4.81,4.81,0,0,0-1-3.16L8,3.06l-.3-.3.88-.88A4.74,4.74,0,0,0,5.36.43V1.49H4.93V.43A4.74,4.74,0,0,0,1.74,1.88l.89.88-.3.3L1.48,2.2a4.67,4.67,0,0,0-1,3.15h1.7v.43H0ZM7.56,3.13,4.71,4.49a1.08,1.08,0,0,0-.63,1A1.13,1.13,0,0,0,6.25,6l1-2.07.36-.76ZM6.5,4.44,5.85,5.79a.71.71,0,0,1-1.09.26.7.7,0,0,1,.11-1.16c.37-.2.77-.37,1.15-.56L6.7,4Z" style="fill:#030F21"/></g></g></svg>