<svg xmlns="http://www.w3.org/2000/svg" viewBox="0 0 17.44 16.61"><g id="Layer_2" data-name="Layer 2"><g id="Layer_1-2" data-name="Layer 1"><path d="M3.48,16.61a.23.23,0,0,1-.14,0,.25.25,0,0,1-.09-.27l2-6L.1,6.59A.22.22,0,0,1,0,6.33a.24.24,0,0,1,.23-.17H6.55l2-6A.24.24,0,0,1,8.72,0,.25.25,0,0,1,9,.16l2,6h6.31a.24.24,0,0,1,.14.43L12.24,10.3l1.95,6a.24.24,0,0,1-.09.27.22.22,0,0,1-.27,0L8.72,12.86l-5.1,3.71A.23.23,0,0,1,3.48,16.61ZM1,6.64,5.62,10a.24.24,0,0,1,.09.26L3.93,15.75l4.65-3.38a.24.24,0,0,1,.28,0l4.65,3.38-1.77-5.47a.22.22,0,0,1,.08-.26l4.65-3.38H10.72a.23.23,0,0,1-.22-.17L8.72,1,7,6.47a.26.26,0,0,1-.23.17Z" style="fill:#030f21"/></g></g></svg>