<svg xmlns="http://www.w3.org/2000/svg" viewBox="0 0 20.88 20.88"><g id="Layer_2" data-name="Layer 2"><g id="Layer_1-2" data-name="Layer 1"><path d="M10.44,20.88A10.44,10.44,0,1,1,20.88,10.44,10.45,10.45,0,0,1,10.44,20.88Zm0-20.31a9.87,9.87,0,1,0,9.87,9.87A9.88,9.88,0,0,0,10.44.57Z" style="fill:#fff"/><path d="M7.18,13.82A.29.29,0,0,1,7,13.73a.29.29,0,0,1,0-.4l2.53-2.4a.28.28,0,1,1,.39.41l-2.53,2.4A.27.27,0,0,1,7.18,13.82Z" style="fill:#fff"/><path d="M10.44,9.72a.28.28,0,0,1-.28-.28V2.92a.28.28,0,1,1,.56,0V9.44A.28.28,0,0,1,10.44,9.72Z" style="fill:#fff"/><path d="M10.44,11.57a1.14,1.14,0,1,1,1.13-1.13A1.13,1.13,0,0,1,10.44,11.57Zm0-1.7a.57.57,0,1,0,.57.57A.58.58,0,0,0,10.44,9.87Z" style="fill:#fff"/></g></g></svg>