<svg xmlns="http://www.w3.org/2000/svg" viewBox="0 0 13.13 13.37"><g id="Layer_2" data-name="Layer 2"><g id="Layer_1-2" data-name="Layer 1"><path d="M10.33,3.77A3.77,3.77,0,1,1,6.57,0,3.78,3.78,0,0,1,10.33,3.77Zm-1,0A2.79,2.79,0,1,0,6.56,6.55,2.79,2.79,0,0,0,9.35,3.77ZM5.89,8.88A7.45,7.45,0,0,0,.1,12.56a.54.54,0,0,0-.09.25.49.49,0,0,0,.33.54c.26.08.46,0,.63-.3a6.48,6.48,0,0,1,10.58-.88c.24.3.45.64.67,1a.5.5,0,0,0,.61.2.47.47,0,0,0,.28-.55.66.66,0,0,0-.11-.26A7.51,7.51,0,0,0,6.63,8.83Z" style="fill:#0b1422"/></g></g></svg>