<svg xmlns="http://www.w3.org/2000/svg" viewBox="0 0 13.56 13.56"><g id="Layer_2" data-name="Layer 2"><g id="Layer_1-2" data-name="Layer 1"><path d="M13.56,6.78a2.84,2.84,0,0,0-1.22-2.31A2.81,2.81,0,0,0,10.1,1.21a2.91,2.91,0,0,0-1,0,2.81,2.81,0,0,0-4.61,0A2.81,2.81,0,0,0,1.21,3.45a2.91,2.91,0,0,0,0,1A2.8,2.8,0,0,0,.49,8.36a2.74,2.74,0,0,0,.72.72,2.8,2.8,0,0,0,2.24,3.26,2.91,2.91,0,0,0,1,0,2.81,2.81,0,0,0,3.89.73,2.78,2.78,0,0,0,.72-.73,2.8,2.8,0,0,0,3.26-2.24,2.91,2.91,0,0,0,0-1A2.82,2.82,0,0,0,13.56,6.78ZM11.41,8.25A.6.6,0,0,0,11.1,9,1.61,1.61,0,0,1,9,11.09a.59.59,0,0,0-.75.32,1.63,1.63,0,0,1-2.95,0,.58.58,0,0,0-.54-.35l-.21,0A1.61,1.61,0,0,1,2.47,9a.59.59,0,0,0-.33-.75,1.62,1.62,0,0,1-.8-2.14,1.66,1.66,0,0,1,.8-.81.59.59,0,0,0,.32-.75A1.61,1.61,0,0,1,4.55,2.46a.59.59,0,0,0,.75-.31,1.62,1.62,0,0,1,2.14-.81,1.68,1.68,0,0,1,.81.81A.58.58,0,0,0,9,2.46a1.62,1.62,0,0,1,2.09.92,1.58,1.58,0,0,1,0,1.17.59.59,0,0,0,.32.75,1.61,1.61,0,0,1,0,3ZM10,5.18a.58.58,0,0,1,.05.83L6.85,9.26h0a.6.6,0,0,1-.84,0L4.1,7.35a.6.6,0,0,1,0-.84.59.59,0,0,1,.83,0L6.43,8,9.25,5.18A.6.6,0,0,1,10,5.18Z" style="fill:red"/></g></g></svg>